<svg version="1.2" xmlns="http://www.w3.org/2000/svg" viewBox="0 0 251 309" width="251" height="309"><style>.a{fill:#67513e}</style><path fill-rule="evenodd" class="a" d="m129.9 21.7c0.3-2.2 2.4-3.8 4.7-3.4 14.8 2.3 28.5 7.5 39.8 15.1 11.2 7.6 19.6 17.3 24.1 27.9 0.8 2.1-0.1 4.6-2.2 5.4q-0.8 0.4-1.6 0.4c-1.7 0-3.2-1-3.9-2.6-3.8-9.1-11.1-17.5-21-24.3-10.3-6.9-22.9-11.7-36.5-13.8-2.2-0.3-3.8-2.4-3.4-4.7zm-75.5 30.8c1.4-1 3.5-1 4.9 0.1 1.4 1 1.9 2.9 1.4 4.5-0.5 1.6-2 2.8-3.7 2.9-1.7 0.1-3.4-1-4-2.6-0.7-1.7-0.1-3.8 1.4-4.9zm19.9-15.4c1.4-1 3.5-1 4.9 0.1 1.4 1 2 2.9 1.4 4.5-0.5 1.6-2 2.8-3.6 2.9-1.8 0.1-3.4-1-4.1-2.5-0.7-1.8-0.1-3.9 1.4-5zm21.4 15.4c1.5-1 3.5-1 4.9 0.1 1.4 1 2 2.9 1.5 4.5-0.6 1.6-2.1 2.8-3.8 2.9-1.7 0.1-3.3-1-4-2.6-0.7-1.7-0.1-3.8 1.4-4.9zm127.5 79.4c0 5.3-2 10.2-5.4 13.9 1.7 2.6 2.6 5.7 2.6 8.8 0 5.1-2.3 9.7-6.3 12.9v13c0 15.9-12.9 28.9-28.9 28.9h-135.8c-15.9 0-28.9-13-28.9-28.9v-14.9c-2.7-3-4.2-6.8-4.2-11 0-2.6 0.6-5.2 1.8-7.5-4.1-3.8-6.6-9.2-6.6-15.2v-0.9c0-9.1 5.8-16.8 14-19.7v-11.2q-0.9-0.5-1.8-1.1c-4.7-3.1-7.4-8.1-7.4-13.7 0-2.7 0.7-5.4 2-7.7-1.7-2.8-2.4-6.2-1.8-9.4 3.6-19 15.7-36.3 34.3-48.8 18.4-12.5 42.1-19.4 66.5-19.4 24.5 0 48.1 6.9 66.6 19.4 18.5 12.5 30.7 29.8 34.2 48.8 0.5 2.6 0.2 5.2-0.8 7.6 2 2.8 3.1 6.1 3.1 9.5 0 5.6-2.7 10.6-7.4 13.7q-1.8 1.2-3.8 1.9v10.4c8.2 2.9 14 10.6 14 19.7zm-20.9-13.5h-37.8l-26.3 26.2h64.1c2.6 0 5.1-0.9 7.3-2.4 3.2-2.2 5.3-6 5.3-10.3v-0.8c0-7-5.6-12.7-12.6-12.7zm-145.9 0l13.8 13.8 8.8-8.9-4.2-4.2-0.7-0.7zm62.8 33.3l6-5.9q0 0 0 0 0 0 0 0l27.6-27.4h-66.9l2 2q0 0 0 0l25.4 25.4zm-89.5-75.9h175.3c3.1 0 5.6-3 5-6.1-3.1-16.8-14-32.2-30.7-43.5-17.1-11.6-39.1-17.9-62-17.9-22.8 0-44.8 6.3-61.9 17.9-16.7 11.3-27.6 26.7-30.7 43.5-0.6 3.1 1.9 6.1 5 6.1zm-5.1 9.5c0 2.8 1.3 5.3 3.7 6.9 2.7 1.8 6.1 2.1 9.1 0.9 2.5-1.1 5.1-1.6 8-1.6 7.4 0 11.4 2.8 14.6 5.1 2.8 2 5 3.5 9.8 3.5 4.7 0 6.9-1.5 9.7-3.5 3.2-2.3 7.2-5.1 14.6-5.1 7.3 0 11.3 2.8 14.5 5.1 2.8 2 5 3.5 9.8 3.5 4.7 0 6.9-1.5 9.7-3.5 3.2-2.3 7.2-5.1 14.6-5.1 7.3 0 11.3 2.8 14.5 5.1 2.8 2 5 3.5 9.8 3.5 4.7 0 6.9-1.5 9.7-3.5 3.2-2.3 7.2-5.1 14.6-5.1q2.3 0 4.6 0.5c1.5 0.3 2.8 0.9 4.1 1.3 2.8 0.9 5.9 0.5 8.4-1.1 2.4-1.6 3.7-4.1 3.7-6.9 0-1-0.2-2-0.6-3-2 1.1-4.3 1.7-6.5 1.7h-175.3c-1.6 0-3.3-0.3-4.8-0.9q-0.3 1.1-0.3 2.2zm9.1 16.8v8c0 0 42.2 0 42.2 0 0 0 86.9 0 86.9 0 0 0 38.2 0 38.2 0v-8.2c-1.7-0.2-3.3-0.6-4.8-1.2-1.6-0.6-3.3-0.9-4.9-0.9-4.8 0-7 1.6-9.8 3.5-3.2 2.3-7.2 5.1-14.5 5.1-7.4 0-11.4-2.8-14.6-5.1-2.8-1.9-5-3.5-9.7-3.5-4.8 0-7 1.6-9.8 3.5-3.2 2.3-7.2 5.1-14.5 5.1-7.4 0-11.4-2.8-14.6-5.1-2.8-1.9-5-3.5-9.7-3.5-4.8 0-7 1.6-9.8 3.5-3.2 2.3-7.2 5.1-14.5 5.1-7.4 0-11.4-2.8-14.6-5.1-2.4-1.7-4.4-3.1-8.1-3.4-2.1-0.2-4.3-0.1-6.3 0.7-2 0.8-4.1 1.3-6.2 1.4q-0.5 0.1-0.9 0.1zm-14 29.8c0 4.7 2.6 8.8 6.4 10.9 1.9 1.1 4.1 1.7 6.3 1.7h67.9l-15.4-15.4-11.8 11.8c-0.8 0.8-1.8 1.2-2.9 1.2-1.1 0-2.2-0.4-3-1.2l-22.5-22.5h-12.3c-7 0-12.7 5.6-12.7 12.6zm5 21.7q-0.2 1.2 0 2.3c0.4 2.6 2 4.8 4.3 6 2.5 1.5 5.7 1.6 8.4 0.5 2.5-1 5.1-1.5 8-1.5 7.4 0 11.4 2.8 14.6 5 2.8 2 5 3.6 9.8 3.6 4.7 0 6.9-1.6 9.7-3.6 3.2-2.2 7.2-5 14.6-5 7.3 0 11.3 2.8 14.5 5 2.8 2 5 3.6 9.8 3.6 4.7 0 6.9-1.6 9.7-3.6 3.2-2.2 7.2-5 14.6-5 7.3 0 11.3 2.8 14.5 5 2.8 2 5 3.6 9.8 3.6 4.7 0 6.9-1.6 9.7-3.6 3.2-2.2 7.2-5 14.6-5 2.9 0 5.5 0.5 8 1.5 2 0.8 4.3 1 6.4 0.4 3.7-1.1 6.5-4.4 6.4-8.3 0-1-0.2-2.1-0.7-3.1-0.1-0.2-0.1-0.5-0.4-0.5-0.1 0-0.3 0.2-0.5 0.2-0.4 0.2-0.9 0.4-1.3 0.6-2.2 0.7-4.6 1.1-6.9 1.1h-72.5l-7.7 7.7c-1.6 1.6-4.3 1.6-5.9 0l-7.6-7.7h-76.2c-2.4 0-4.9-0.4-7.1-1.2-0.2-0.1-0.6 1.8-0.6 2zm181.2 27v-9.4c-2.5 0.4-5.2 0.3-7.7-0.4-1.1-0.3-2.2-0.8-3.3-1.2-1.2-0.3-2.4-0.4-3.6-0.4-4.8 0-7 1.5-9.8 3.5-3.2 2.3-7.2 5-14.5 5-7.4 0-11.4-2.7-14.6-5-2.8-2-5-3.5-9.7-3.5-4.8 0-7 1.5-9.8 3.5-3.2 2.3-7.2 5-14.5 5-7.4 0-11.4-2.7-14.6-5-2.8-2-5-3.5-9.7-3.5-4.8 0-7 1.5-9.8 3.5-3.2 2.3-7.2 5-14.5 5-7.4 0-11.4-2.7-14.6-5-2.8-2-5-3.5-9.8-3.5-1.8 0-3.4 0.3-4.9 0.9q-0.5 0.2-0.9 0.3-0.1 0.1-0.2 0.1c-3.5 1.2-7.2 1.2-10.6 0.3v9.8c0 11.4 9.3 20.6 20.6 20.6h135.8c11.4 0 20.7-9.2 20.7-20.6zm-99.6-143.4c1.5-1.1 3.5-1 4.9 0.1 1.4 1 2 2.9 1.5 4.5-0.6 1.6-2.1 2.8-3.8 2.9-1.7 0.1-3.3-1-4-2.6-0.7-1.7-0.1-3.8 1.4-4.9zm18.7 18.2c1.4-1 3.5-1 4.9 0.1 1.3 1 1.9 2.9 1.4 4.5-0.5 1.6-2 2.8-3.7 2.9-1.7 0.1-3.4-1-4-2.6-0.8-1.7-0.2-3.8 1.4-4.9zm-13.6-37.1c0.6-1.5 2.2-2.6 3.9-2.6 1.7-0.1 3.3 1.1 3.9 2.6 0.6 1.7 0 3.6-1.3 4.7-1.4 1.1-3.4 1.2-4.9 0.2-1.6-1-2.2-3.1-1.6-4.9zm-97 189q-0.6 16.2-0.6 28.2 2.9-5.1 7.3-6 0.8 0 1.5 0 17.6 0 18 25.4v1q0 25.5-18.8 25.5-4.5 0-8.5-6l-0.4 8.3h-12.8q0.2-19.8 0.2-38.1 0-20.1-0.3-38.3zm-0.6 38.3l-0.3 18.8q2.9 5.7 7.2 5.7 0.5 0 1-0.1 4.9-0.7 5.5-13.3 0-1.3 0-2.5 0-10.4-4.2-12.4-1.3-0.6-2.5-0.6-3.4 0-6.7 4.4zm59.1 38.2l-0.5-8.9q-2.3 7.1-12.2 7.1-0.1 0.1-0.2 0.1-9.8 0-13-8.9-2.2-5.9-2.2-24.4 0-9.5 0.6-22.4h13.1q-1 18.2-1 27.9 0 5 0.2 7.7 0.8 8.5 5.5 8.5 4.7 0 5.8-4.4l-0.5-37.5 12.7-0.2q0 23.3 1.7 54.2zm28.8-38.7l0.6 39.2-13.3 0.1q0-24.9-1.7-55.9l10-1.1 0.5 8.8q2.3-6.4 10.6-7.4 1.3-0.1 2.4-0.1 6.6 0 10 4.3 3.9 5.1 4 16.2l-12 1.2q0-1 0-1.8 0-8.7-4.5-8.7h-0.2q-5.2 0.3-6.4 5.2zm28.2 45l12.7-0.7q0 0.6 0 1.3 0 5.9 4.7 6.4 0.7 0.1 1.4 0.1 4 0 5.8-3.2 1.5-2.9 1.5-10.9 0-2.2-0.1-4.8-3.1 6.1-11.3 6.6-16-0.2-16-27.3v-0.4q0.1-27.4 19.1-27.6 5.1 0 9.3 6.1l0.1-8.6 11.9 0.5q0 44.6-0.3 55.3-0.3 10.6-3.2 17-3 6.5-10.1 8.3-3.7 0.9-7.4 0.9-3.3 0-6.5-0.7-6.9-1.6-9.5-6.1-2.2-3.7-2.2-9.7 0-1.2 0.1-2.5zm25.9-21.4v-22q-2.7-5.3-6.7-5.3-0.9 0-1.7 0.2-5.3 1.2-5.8 14.4-0.1 1.4-0.1 2.7 0 10.8 4 13.2 1.4 0.9 2.9 0.9 3.4 0 7.4-4.1zm36.4-40.4q18.4 0 18.4 25.5 0 1-0.1 2.1-0.7 27.6-19.6 27.9-0.2 0-0.4 0-17.9 0-17.9-26.1v-1.5q0.5-27.9 19.6-27.9zm-1.8 12.3q-3.4 1.2-4.7 8.8-0.7 4.6-0.7 9.2 0 3.1 0.3 6.2 0.9 7.8 5.6 8.1h0.4q4.3 0 6-5.8 1.3-4.8 1.3-11.4 0-1.7 0-3.3-0.5-8.7-2.6-10.9-1.4-1.3-3.3-1.3-1.1 0-2.3 0.4zm42.2-12.3q18.4 0 18.4 25.5 0 1-0.1 2.1-0.7 27.6-19.6 27.9-0.2 0-0.4 0-17.9 0-17.9-26.1v-1.5q0.5-27.9 19.6-27.9zm-1.8 12.3q-3.4 1.2-4.7 8.8-0.7 4.6-0.7 9.2 0 3.1 0.3 6.2 0.9 7.8 5.6 8.1h0.4q4.3 0 6-5.8 1.3-4.8 1.3-11.4 0-1.7 0-3.3-0.5-8.7-2.6-10.9-1.4-1.3-3.3-1.3-1.1 0-2.3 0.4z"/></svg>